<svg width="50" height="50" viewBox="0 0 50 50" xmlns="http://www.w3.org/2000/svg"><title>1A34CFB6-1DA9-49CD-90D5-3DA79D11AC44</title><g fill="none" fill-rule="evenodd"><path d="M44.902 19.9c1.3 0 2.294.238 2.983.715.69.477 1.034 1.205 1.034 2.184 0 1.222-.602 2.05-1.807 2.483.165.2.351.442.559.728a21.364 21.364 0 0 1 1.261 1.956c.2.352.377.696.533 1.034h-1.833a19.066 19.066 0 0 0-.533-.942c-.19-.317-.383-.624-.578-.924a21.828 21.828 0 0 0-1.112-1.553 4.474 4.474 0 0 1-.312.013h-1.04V29h-1.638v-8.879a8.77 8.77 0 0 1 1.274-.175c.45-.03.854-.046 1.209-.046zm.117 1.417c-.347 0-.667.013-.962.039v2.912h.715c.399 0 .75-.022 1.053-.065.303-.043.557-.121.76-.234.204-.113.358-.264.462-.455.104-.19.156-.433.156-.728a1.45 1.45 0 0 0-.156-.702 1.16 1.16 0 0 0-.448-.455 2.122 2.122 0 0 0-.696-.24 5.072 5.072 0 0 0-.884-.072z" fill="#FFF"/><path fill="#FD9F5D" d="M18.5 10L35 14.286v23.571L18.5 40z"/><path fill="#EE8035" d="M14 16.429L17.75 10v30L14 36.786z"/><path d="M4.026 29.104c-.477 0-.958-.015-1.443-.046a6.725 6.725 0 0 1-1.275-.188v-8.749c.191-.035.395-.067.611-.097a10.7 10.7 0 0 1 .663-.072 17.848 17.848 0 0 1 1.3-.052 8.79 8.79 0 0 1 1.522.124c.468.082.873.218 1.215.409.342.19.609.442.8.754.19.312.286.698.286 1.157 0 .425-.102.789-.306 1.092a2.165 2.165 0 0 1-.851.728c.546.182.948.45 1.208.806.26.355.39.806.39 1.352 0 .927-.337 1.623-1.014 2.087-.676.463-1.711.695-3.106.695zm-1.105-4.16v2.743a13.826 13.826 0 0 0 1.157.052c.338 0 .652-.022.942-.065.29-.043.542-.12.754-.227.212-.109.381-.254.507-.436s.189-.416.189-.702c0-.511-.187-.867-.56-1.066-.372-.2-.888-.299-1.546-.299H2.92zm0-1.287h1.157c.624 0 1.113-.089 1.469-.266.355-.178.533-.497.533-.956 0-.433-.185-.741-.553-.923-.368-.182-.847-.273-1.437-.273-.25 0-.474.004-.669.013a6.412 6.412 0 0 0-.5.039v2.366z" fill="#FFF"/></g></svg>