<svg width="120" height="48" viewBox="0 0 120 48" xmlns="http://www.w3.org/2000/svg"><g fill="none" fill-rule="evenodd"><g fill-rule="nonzero"><path d="M43.628 42.675C35.368 45.75 27.014 47.606 18.195 48c-1.804 0-3.255-1.425-3.497-3.15a195.278 195.278 0 0 1 0-41.7C14.94 1.425 16.39 0 18.195 0c8.838.394 17.191 2.25 25.452 5.325 1.525.638 3.032 1.912 3.386 3.581 1.06 10.088 1.06 20.1 0 30.188-.354 1.669-1.88 2.944-3.405 3.581z" fill="#FDB27F"/><path d="M10.195 46.425c-3.553-2.119-6.158-4.519-8.242-6.919-.725-.843-1.488-2.194-1.525-3.075-.335-9.656-.335-15.806 0-25.462.037-.881.54-1.931 1.246-2.813 1.991-2.475 5.396-5.494 8.521-6.619.782-.28 1.507.77 1.545 2.007.483 13.612.465 27.225 0 40.856-.056 1.256-.875 2.419-1.545 2.025z" fill="#EE8035"/><path d="M31.442 15c5.73 0 10.735 3.619 13.395 9-2.66 5.381-7.665 9-13.395 9-5.73 0-10.735-3.619-13.395-9 2.66-5.381 7.665-9 13.395-9z" fill="#FFF"/><g transform="translate(24 15.75)"><ellipse fill="#5A5A5A" cx="7.442" cy="8.25" rx="7.442" ry="8.25"/><ellipse fill="#FFF" cx="7.442" cy="8.25" rx="5.953" ry="6.75"/><ellipse fill="#5A5A5A" cx="7.442" cy="8.25" rx="4.465" ry="5.25"/></g></g><g fill-rule="nonzero" fill="#5a5a5a"><path d="M61.416 21.893c1.174.373 2.497.615 4.379.615 1.789 0 3.242-.428 4.323-1.267 1.1-.858 1.677-2.07 1.714-3.599.038-1.454-.484-2.517-1.584-3.206.653-.634.97-1.436.95-2.387-.018-1.454-.651-2.647-1.807-3.412-1.006-.67-2.403-.988-4.118-.95a16.32 16.32 0 0 0-3.838.577.526.526 0 0 0-.373.504c-.168 4.25-.168 8.39 0 12.64 0 .224.15.41.354.485zm6.56-4.25c0 .615-.28.838-.504.95-.447.224-1.062.336-1.807.336-.354 0-.671-.019-.95-.037-.02-.914-.02-1.53-.02-2.424h1.268c.726 0 1.267.112 1.62.317.187.13.392.335.392.857zm-.802-4.83c-.205.131-.652.28-1.621.28h-.876c0-.671 0-1.174.019-1.883a21.23 21.23 0 0 1 1.006-.037c.801 0 1.23.149 1.435.26.149.094.316.243.316.672.038.466-.13.615-.28.709zM85.584 16.673c.037-2.685-.019-5.426-.168-8.11-.018-.261-.205-.485-.466-.504a68.46 68.46 0 0 0-2.757-.186c-.299-.019-.54.242-.522.56.056 2.665.093 5.369.074 8.035 0 .913-.186 1.566-.503 1.92-.335.354-.764.54-1.304.54-.578 0-.988-.167-1.267-.503-.354-.428-.522-1.08-.54-1.957-.038-2.685 0-5.388.055-8.036 0-.298-.223-.56-.521-.56a34.24 34.24 0 0 0-2.758.187c-.242.019-.447.243-.466.504-.15 2.684-.205 5.425-.168 8.11.019 1.66.522 3.095 1.435 4.158 1.025 1.155 2.46 1.77 4.174 1.77 1.752 0 3.205-.615 4.23-1.752.931-1.063 1.435-2.498 1.472-4.176zM92.236 7.947c-1.155-.186-1.733-.186-2.888 0a.524.524 0 0 0-.429.522 520.983 520.983 0 0 0 0 13.22c0 .26.187.484.429.521 1.155.187 1.733.187 2.888 0a.524.524 0 0 0 .429-.522c.055-4.381.055-8.837 0-13.219a.524.524 0 0 0-.429-.522zM96.932 22.136c2.757.205 5.44.205 8.198 0a.507.507 0 0 0 .466-.504l.093-2.517c0-.298-.223-.578-.54-.56a63.31 63.31 0 0 1-4.975.131c-.019-3.411 0-6.86.037-10.254 0-.317-.242-.56-.522-.54-1.099.037-1.677.074-2.776.186-.26.019-.447.242-.466.522a169.336 169.336 0 0 0 0 13.05.537.537 0 0 0 .485.486zM117.615 20.607c1.435-1.343 2.199-3.263 2.199-5.519 0-2.349-.764-4.27-2.218-5.593-1.379-1.25-3.186-1.846-5.403-1.79-1.342.037-2.721.224-3.876.54a.526.526 0 0 0-.373.504c-.205 4.27-.205 8.409 0 12.678.019.224.168.429.373.485 1.136.335 2.422.522 3.782.56 1.994.074 3.988-.448 5.516-1.865zm-5.981-9.229c.223-.019.447-.019.67-.019 1.23-.018 2.143.299 2.702.914.56.634.857 1.585.857 2.815 0 1.175-.298 2.107-.894 2.778-.596.671-1.51.988-2.758.97-.223 0-.41-.02-.577-.02-.038-2.479-.038-4.977 0-7.438z"/><g><path d="M73.062 26.125a51.267 51.267 0 0 0-2.925-.167.5.5 0 0 0-.503.391c-.69 2.573-1.938 6.265-2.721 8.409-.801-2.163-2.068-6.022-2.72-8.409a.515.515 0 0 0-.504-.391c-1.23.056-1.826.074-3.037.167-.317.02-.54.355-.447.672 1.118 4.4 3.205 9.322 4.9 13.125.075.186.261.298.448.298 1.062.019 1.565.019 2.627 0 .186 0 .373-.13.447-.298 3.038-6.805 4.212-10.571 4.901-13.107.074-.335-.15-.67-.466-.69zM78.652 25.995c-1.155-.187-1.733-.187-2.888 0a.524.524 0 0 0-.429.522 509.292 509.292 0 0 0 0 13.07c0 .26.187.484.429.521 1.137.187 1.733.187 2.888 0a.524.524 0 0 0 .429-.522c.056-4.344.056-8.744 0-13.07a.539.539 0 0 0-.429-.521zM87.484 31.122c-.559-.224-1.099-.429-1.416-.634-.354-.242-.391-.41-.391-.596 0-.28.112-.392.224-.467.111-.074.428-.223 1.174-.223.764 0 1.434.13 2.46.727.279.149.614.018.726-.298a64.5 64.5 0 0 0 .745-2.275.557.557 0 0 0-.223-.634 6.994 6.994 0 0 0-3.895-1.137h-.037c-1.416 0-2.665.447-3.596 1.286-.932.84-1.454 2.014-1.491 3.3-.019 1.23.391 2.2 1.267 2.983.801.727 1.808 1.1 2.702 1.436.633.242 1.248.466 1.696.783.316.242.354.466.354.634 0 .335-.094.466-.224.56-.26.204-.69.297-1.286.297-1.21 0-2.18-.26-3.149-.839a.494.494 0 0 0-.726.299c-.299.913-.448 1.38-.727 2.274a.558.558 0 0 0 .205.616c1.23.82 2.776 1.267 4.379 1.286h.074c1.621 0 2.926-.429 3.876-1.25.95-.838 1.453-1.938 1.472-3.28.037-1.343-.317-2.331-1.08-3.095-.82-.858-2.032-1.324-3.113-1.753zM99.95 25.585c-1.751 0-3.41.708-4.658 1.995-1.398 1.435-2.124 3.318-2.124 5.462 0 2.163.726 4.065 2.087 5.444a6.511 6.511 0 0 0 4.695 1.995c1.826 0 3.503-.708 4.752-1.995 1.341-1.398 2.03-3.28 2.03-5.444 0-2.162-.726-4.045-2.067-5.462a6.522 6.522 0 0 0-4.715-1.995zm-2.832 7.476c0-1.119.28-2.088.783-2.76.503-.67 1.192-1.006 2.05-1.006.856 0 1.565.336 2.049.988.652.858.783 1.995.783 2.778 0 .783-.13 1.902-.783 2.76-.484.652-1.211.987-2.05.987-.857 0-1.546-.335-2.05-.988-.652-.857-.782-1.976-.782-2.759zM117.15 34.46a4.422 4.422 0 0 0 1.378-1.231c.484-.671.708-1.529.69-2.536-.02-1.622-.634-2.871-1.77-3.729-1.137-.839-2.665-1.249-4.529-1.193-1.248.037-2.571.224-3.708.56-.205.055-.354.26-.372.484-.187 4.27-.187 8.427.018 12.697.019.26.205.485.466.503 1.1.093 1.658.13 2.758.187a.504.504 0 0 0 .521-.541 378.973 378.973 0 0 1-.074-4.27h.652c1.044 1.38 2.087 3.45 2.534 4.363.112.205.205.466.54.466h.02a43.012 43.012 0 0 0 3.092-.186c.336-.037.56-.41.429-.746-.913-2.219-2.031-3.934-2.646-4.829zm-2.311-4.755c.186.112.447.336.447.932 0 .634-.243.858-.429.97-.26.168-.82.354-2.03.354h-.299c0-.95 0-1.585.019-2.554.186-.019.316-.019.521-.019.764-.037 1.38.075 1.77.317z"/></g></g></g></svg>
