<svg width="64" height="64" viewBox="0 0 64 64" xmlns="http://www.w3.org/2000/svg"><g fill-rule="nonzero" fill="none"><path d="M58.17 56.9C47.158 61 36.02 63.475 24.26 64c-2.406 0-4.34-1.9-4.663-4.2a260.37 260.37 0 0 1 0-55.6C19.919 1.9 21.854 0 24.26 0c11.783.525 22.921 3 33.935 7.1 2.034.85 4.044 2.55 4.515 4.775a191.492 191.492 0 0 1 0 40.25c-.471 2.225-2.505 3.925-4.54 4.775z" fill="#FDB27F"/><path d="M13.594 61.9c-4.738-2.825-8.211-6.025-10.99-9.225C1.638 51.55.62 49.75.572 48.575.124 35.7.124 27.5.57 14.625c.05-1.175.719-2.575 1.662-3.75 2.654-3.3 7.193-7.325 11.36-8.825 1.043-.375 2.01 1.025 2.06 2.675.645 18.15.62 36.3 0 54.475-.075 1.675-1.166 3.225-2.06 2.7z" fill="#EE8035"/><path d="M41.922 20c7.64 0 14.314 4.825 17.86 12-3.546 7.175-10.22 12-17.86 12-7.64 0-14.313-4.825-17.86-12 3.547-7.175 10.22-12 17.86-12z" fill="#FFF"/><g transform="translate(32 21)"><ellipse fill="#5A5A5A" cx="9.922" cy="11" rx="9.922" ry="11"/><ellipse fill="#FFF" cx="9.922" cy="11" rx="7.938" ry="9"/><ellipse fill="#5A5A5A" cx="9.922" cy="11" rx="5.953" ry="7"/></g></g></svg>
