<svg xmlns="http://www.w3.org/2000/svg" width="216" height="146" viewBox="0 0 216 146"><path fill="#EE8035" d="M118.428 101.679H97.571c-1.413 0-2.635.517-3.667 1.548-1.032 1.032-1.548 2.254-1.548 3.666v18.25c0 1.412.516 2.635 1.548 3.668 1.033 1.03 2.254 1.547 3.667 1.547h20.859c1.411 0 2.633-.517 3.666-1.547 1.031-1.033 1.547-2.256 1.547-3.668v-18.25c0-1.412-.517-2.634-1.549-3.666s-2.254-1.548-3.666-1.548zM124.661 17.19c-1.005-1.031-2.213-1.548-3.626-1.548H94.964c-1.412 0-2.62.517-3.625 1.548-1.005 1.032-1.48 2.255-1.426 3.667l2.281 62.571c.054 1.412.61 2.635 1.67 3.666 1.059 1.032 2.294 1.549 3.707 1.549h20.859c1.411 0 2.646-.517 3.707-1.549 1.059-1.031 1.614-2.254 1.67-3.666l2.28-62.571c.056-1.412-.421-2.634-1.426-3.667z"/></svg>
