<svg width="16" height="16" viewBox="0 0 16 16" xmlns="http://www.w3.org/2000/svg"><g fill="#EE8035" fill-rule="evenodd"><path d="M10.734 5.354C7.01 4.374 2.905 5.43 0 8.524l.917.976c2.42-2.576 5.779-3.556 8.913-2.94l.904-1.206zm1.01.32A11.174 11.174 0 0 1 16 8.524l-.917.976a9.852 9.852 0 0 0-4.204-2.672l.865-1.154z" fill-rule="nonzero"/><path d="M7.304 11.594l3.631-4.841a3.333 3.333 0 0 1-3.631 4.841zm-.97-.373a3.333 3.333 0 1 1 3.971-5.295l-3.97 5.295z"/><path fill-rule="nonzero" d="M12.4 1.8L2.8 14.6l.8.6 9.6-12.8z"/></g></svg>
