<svg width="16" height="16" viewBox="0 0 16 16" xmlns="http://www.w3.org/2000/svg"><path d="M15.635 2.625a1.229 1.229 0 0 0-.866-.34h-1.23V1.43c0-.393-.151-.73-.452-1.01A1.54 1.54 0 0 0 12 0h-.615c-.423 0-.785.14-1.087.42-.301.28-.452.616-.452 1.009v.857H6.154v-.857c0-.393-.15-.73-.452-1.01A1.54 1.54 0 0 0 4.615 0H4c-.423 0-.785.14-1.086.42-.302.28-.452.616-.452 1.009v.857H1.23a1.23 1.23 0 0 0-.866.34A1.061 1.061 0 0 0 0 3.428v11.428c0 .31.122.577.365.804.244.226.532.339.866.339h13.538c.334 0 .622-.113.866-.34.243-.225.365-.494.365-.803V3.43c0-.31-.122-.578-.365-.804zM4 14.857H1.23v-2.571H4v2.571zm0-3.143H1.23V8.857H4v2.857zm0-3.428H1.23V5.714H4v2.572zM3.784 4.2A.265.265 0 0 1 3.692 4V1.429c0-.078.03-.145.092-.201A.307.307 0 0 1 4 1.143h.615c.084 0 .156.028.217.085.06.056.091.123.091.2V4c0 .078-.03.144-.091.2a.307.307 0 0 1-.217.086H4a.307.307 0 0 1-.216-.085zm3.908 10.656H4.615v-2.571h3.077v2.571zm0-3.143H4.615V8.857h3.077v2.857zm0-3.428H4.615V5.714h3.077v2.572zm3.693 6.571H8.308v-2.571h3.077v2.571zm0-3.143H8.308V8.857h3.077v2.857zm0-3.428H8.308V5.714h3.077v2.572zM11.168 4.2a.265.265 0 0 1-.09-.201V1.429c0-.078.03-.145.09-.201a.307.307 0 0 1 .217-.085H12c.084 0 .156.028.217.085.06.056.09.123.09.2V4c0 .078-.03.144-.09.2a.307.307 0 0 1-.217.086h-.615a.307.307 0 0 1-.217-.085zm3.601 10.656H12v-2.571h2.77v2.571zm0-3.143H12V8.857h2.77v2.857zm0-3.428H12V5.714h2.77v2.572z" fill="#EE8035" fill-rule="evenodd"/></svg>
