<svg height="512" viewBox="0 0 512 512" width="512" xmlns="http://www.w3.org/2000/svg"><path fill="#EE8035" d="M497.913 429.906l-84.863-84.848c22.365-34.903 35.718-76.146 35.718-120.676C448.768 100.453 348.314 0 224.383 0 100.468 0 0 100.453 0 224.384s100.468 224.384 224.383 224.384c44.529 0 85.771-13.352 120.66-35.718l84.862 84.864c18.782 18.781 49.226 18.781 68.008 0 18.782-18.783 18.782-49.225 0-68.008zm-273.53-45.248c-88.511 0-160.274-71.748-160.274-160.274 0-88.511 71.764-160.274 160.274-160.274 88.526 0 160.273 71.763 160.273 160.274 0 88.526-71.747 160.274-160.273 160.274zm-96.164-128.22h192.329v-64.109H128.219v64.109z"/></svg>
