<svg xmlns="http://www.w3.org/2000/svg" width="216" height="146" viewBox="0 0 216 146"><path fill="#EE8035" d="M121.159 93.486c8.825-3.721 15.792-8.786 20.897-15.195s7.658-13.388 7.658-20.938-2.553-14.53-7.66-20.939c-5.104-6.409-12.07-11.474-20.896-15.195s-18.426-5.581-28.801-5.581c-10.374 0-19.974 1.861-28.801 5.581-8.826 3.721-15.792 8.786-20.897 15.195C37.553 42.824 35 49.803 35 57.353c0 6.463 1.931 12.549 5.787 18.252 3.856 5.702 9.152 10.51 15.887 14.42a44.9 44.9 0 0 1-1.67 3.586 20.714 20.714 0 0 1-2.037 3.137 254.79 254.79 0 0 0-1.833 2.361c-.435.57-1.141 1.373-2.119 2.403-.978 1.032-1.603 1.711-1.874 2.037 0-.056-.109.067-.326.366-.218.299-.34.434-.367.408-.027-.028-.136.107-.326.406l-.285.448-.204.407a1.72 1.72 0 0 0-.163.488c-.027.162-.041.34-.041.529s.027.366.082.529c.109.706.421 1.275.937 1.711.516.434 1.072.651 1.67.651h.245c2.715-.38 5.051-.815 7.006-1.304 8.365-2.172 15.915-5.649 22.65-10.429 4.888.869 9.668 1.304 14.339 1.304 10.374.003 19.975-1.857 28.801-5.577z"/><path fill="#EE8035" d="M175.215 96.5C179.072 90.824 181 84.729 181 78.21c0-6.681-2.039-12.931-6.111-18.742-4.074-5.811-9.615-10.646-16.621-14.502a42.052 42.052 0 0 1 1.873 12.384c0 7.278-1.818 14.176-5.459 20.694-3.639 6.517-8.854 12.274-15.643 17.272-6.301 4.562-13.471 8.065-21.51 10.51-8.037 2.443-16.429 3.666-25.174 3.666-1.629 0-4.019-.108-7.169-.325 10.917 7.169 23.736 10.754 38.455 10.754 4.672 0 9.451-.435 14.34-1.304 6.734 4.781 14.285 8.256 22.649 10.429 1.955.49 4.291.924 7.007 1.304.651.055 1.25-.135 1.793-.57.543-.435.896-1.031 1.059-1.791-.026-.326 0-.504.082-.53.08-.026.066-.203-.041-.529l-.163-.489-.203-.406a3.906 3.906 0 0 0-.285-.448 3.657 3.657 0 0 0-.326-.407 9.016 9.016 0 0 1-.366-.406 8.321 8.321 0 0 0-.326-.367c-.271-.325-.895-1.004-1.873-2.036s-1.684-1.833-2.118-2.403-1.046-1.357-1.833-2.363a20.566 20.566 0 0 1-2.037-3.137 44.843 44.843 0 0 1-1.67-3.584c6.734-3.914 12.029-8.707 15.885-14.384z"/></svg>
