<svg width="16" height="16" viewBox="0 0 16 16" xmlns="http://www.w3.org/2000/svg"><path d="M14.76 1.269l-.075-.074a4.239 4.239 0 0 0-5.938.05L1.183 8.81C.613 9.38 0 10.418 0 11.346c0 .871.34 1.691.957 2.307a3.245 3.245 0 0 0 2.31.958 3.24 3.24 0 0 0 2.311-.958l6.53-6.53c.448-.448.694-1.07.672-1.706a2.287 2.287 0 0 0-.673-1.544 2.285 2.285 0 0 0-1.625-.673c-.615 0-1.192.238-1.625.673l-5 5a.685.685 0 1 0 .963.973L9.825 4.84a.928.928 0 0 1 .672-.262.93.93 0 0 1 .643.263.927.927 0 0 1 0 1.314l-6.53 6.53a1.888 1.888 0 0 1-1.342.557c-.508 0-.985-.198-1.343-.557a1.882 1.882 0 0 1-.556-1.34c0-.425.359-1.142.783-1.567l7.563-7.565a2.868 2.868 0 0 1 4.025-.028l.072.073a2.87 2.87 0 0 1-.045 4.008l-6.26 6.26a.683.683 0 1 0 .965.972l6.264-6.263a4.241 4.241 0 0 0 .024-5.966z" fill="#EE8035" fill-rule="evenodd"/></svg>
