<svg xmlns="http://www.w3.org/2000/svg" xmlns:xlink="http://www.w3.org/1999/xlink" width="32" height="32" viewBox="0 0 32 32"><defs><path id="a" d="M16 8h13.998A2 2 0 0 1 32 9.99v16.02c0 1.099-.89 1.99-2.002 1.99H2.002A2 2 0 0 1 0 26.01V5.997C0 4.895.895 4 1.994 4h12.012C15.107 4 16 4.887 16 5.998V8z"/></defs><g fill="none" fill-rule="evenodd"><use fill="#FFC7A1" xlink:href="#a"/><path stroke="#EE8035" d="M29.998 8.5H15.5V5.998c0-.832-.666-1.498-1.494-1.498H1.994C1.17 4.5.5 5.171.5 5.998V26.01a1.5 1.5 0 0 0 1.502 1.49h27.996c.835 0 1.502-.665 1.502-1.49V9.99a1.5 1.5 0 0 0-1.502-1.49z"/></g></svg>