<svg width="24" height="24" viewBox="0 0 24 24" xmlns="http://www.w3.org/2000/svg"><title>icon m/hint</title><g fill="#999" fill-rule="evenodd"><path d="M12 0C5.383 0 0 5.383 0 12s5.383 12 12 12 12-5.383 12-12S18.617 0 12 0zm0 22C6.486 22 2 17.514 2 12S6.486 2 12 2s10 4.486 10 10-4.486 10-10 10z"/><ellipse cx="12.191" cy="18.292" rx="1.235" ry="1.235"/><path d="M11.958 4.722c-1.133 0-2.224.48-3.072 1.351a.738.738 0 1 0 1.057 1.031c.569-.584 1.284-.905 2.015-.905 1.597 0 2.897 1.27 2.897 2.832 0 1.509-1.407 2.832-2.903 2.832-.408 0-.831.33-.831.738v2.664a.739.739 0 0 0 1.477 0v-1.993c2.215-.363 3.641-2.158 3.641-4.24 0-2.377-1.87-4.31-4.281-4.31z"/></g></svg>