<svg width="32" height="32" viewBox="0 0 32 32" xmlns="http://www.w3.org/2000/svg" xmlns:xlink="http://www.w3.org/1999/xlink"><title>Document/DOCX</title><defs><path d="M0 2.002C0 .896.886 0 1.994 0h15.392L25 7.6v22.403C25 31.106 24.11 32 22.996 32H2.004A1.998 1.998 0 0 1 0 29.998V2.002z" id="a"/><mask id="c" x="0" y="0" width="25" height="32" fill="#fff"><use xlink:href="#a"/></mask><path d="M17 0l8 8h-6.002A1.993 1.993 0 0 1 17 6.002V0z" id="b"/><mask id="d" x="0" y="0" width="8" height="8" fill="#fff"><use xlink:href="#b"/></mask></defs><g transform="translate(2)" fill="none" fill-rule="evenodd"><use stroke="#D8D8D8" mask="url(#c)" stroke-width="2" fill="#FFF" xlink:href="#a"/><path fill="#5A78A6" d="M5 16h25v10H5z"/><path d="M8.062 22.984c.058.005.126.01.204.012.077.003.17.004.276.004.624 0 1.086-.157 1.388-.472.301-.315.452-.75.452-1.304 0-.581-.144-1.021-.432-1.32-.288-.299-.744-.448-1.368-.448-.086 0-.174.001-.264.004-.09.003-.176.01-.256.02v3.504zm3.608-1.76c0 .48-.075.899-.224 1.256-.15.357-.362.653-.636.888-.275.235-.61.41-1.004.528a4.655 4.655 0 0 1-1.328.176c-.224 0-.486-.01-.784-.028a6.405 6.405 0 0 1-.88-.116v-5.4c.288-.053.588-.09.9-.108.312-.019.58-.028.804-.028.474 0 .905.053 1.292.16.386.107.718.275.996.504.277.23.49.523.64.88.15.357.224.787.224 1.288zm1.999 0c0 .272.033.517.1.736.067.219.163.407.288.564.125.157.279.279.46.364.181.085.39.128.624.128.23 0 .436-.043.62-.128s.339-.207.464-.364.221-.345.288-.564c.067-.219.1-.464.1-.736a2.56 2.56 0 0 0-.1-.74 1.677 1.677 0 0 0-.288-.568 1.266 1.266 0 0 0-.464-.364 1.457 1.457 0 0 0-.62-.128c-.235 0-.443.044-.624.132-.181.088-.335.21-.46.368a1.677 1.677 0 0 0-.288.568 2.53 2.53 0 0 0-.1.732zm4.232 0c0 .475-.07.892-.212 1.252-.141.36-.335.661-.58.904a2.381 2.381 0 0 1-.876.548 3.182 3.182 0 0 1-1.092.184c-.379 0-.736-.061-1.072-.184a2.465 2.465 0 0 1-.88-.548 2.562 2.562 0 0 1-.592-.904 3.355 3.355 0 0 1-.216-1.252c0-.475.075-.892.224-1.252.15-.36.35-.663.604-.908.253-.245.547-.43.88-.552a3.022 3.022 0 0 1 1.052-.184c.379 0 .736.061 1.072.184.336.123.63.307.88.552.25.245.448.548.592.908.144.36.216.777.216 1.252zm3.479 2.888c-.901 0-1.588-.25-2.06-.752-.472-.501-.708-1.213-.708-2.136 0-.459.072-.868.216-1.228.144-.36.341-.664.592-.912.25-.248.55-.436.896-.564a3.232 3.232 0 0 1 1.128-.192c.235 0 .448.017.64.052.192.035.36.075.504.12a2.487 2.487 0 0 1 .568.252l-.36 1.008a2.844 2.844 0 0 0-1.368-.328c-.192 0-.38.032-.564.096a1.275 1.275 0 0 0-.488.308 1.534 1.534 0 0 0-.34.548 2.3 2.3 0 0 0-.128.816c0 .256.028.495.084.716.056.221.147.412.272.572.125.16.29.287.492.38.203.093.448.14.736.14a3.354 3.354 0 0 0 .872-.108c.112-.03.21-.063.296-.1.085-.037.163-.072.232-.104l.344 1c-.176.107-.424.203-.744.288-.32.085-.69.128-1.112.128zM27.34 24c-.156-.31-.325-.623-.509-.94a11.368 11.368 0 0 0-.636-.972c-.075.096-.17.23-.284.4-.115.17-.23.352-.344.544-.115.192-.223.376-.324.552a6.305 6.305 0 0 0-.224.416h-1.424c.235-.432.508-.885.82-1.36.312-.475.66-.979 1.044-1.512l-1.784-2.672h1.512l1.08 1.728 1.056-1.728h1.424l-1.76 2.688c.448.581.824 1.119 1.128 1.612.304.493.544.908.72 1.244H27.34z" fill="#FFF"/><use stroke="#D8D8D8" mask="url(#d)" stroke-width="2" fill="#F2F2F2" xlink:href="#b"/></g></svg>