<svg width="32" height="32" viewBox="0 0 32 32" xmlns="http://www.w3.org/2000/svg" xmlns:xlink="http://www.w3.org/1999/xlink"><defs><path d="M0 2.002C0 .896.886 0 1.994 0h15.392L25 7.6v22.403C25 31.106 24.11 32 22.996 32H2.004A1.998 1.998 0 0 1 0 29.998V2.002z" id="a"/><mask id="c" x="0" y="0" width="25" height="32" fill="#fff"><use xlink:href="#a"/></mask><path d="M17 0l8 8h-6.002A1.993 1.993 0 0 1 17 6.002V0z" id="b"/><mask id="d" x="0" y="0" width="8" height="8" fill="#fff"><use xlink:href="#b"/></mask></defs><g transform="translate(2)" fill="none" fill-rule="evenodd"><use stroke="#D8D8D8" mask="url(#c)" stroke-width="2" fill="#FFF" xlink:href="#a"/><path fill="#7CB507" d="M6 16h24v10H6z"/><path d="M12.324 24c-.155-.31-.324-.623-.508-.94a11.368 11.368 0 0 0-.636-.972c-.075.096-.17.23-.284.4-.115.17-.23.352-.344.544-.115.192-.223.376-.324.552a6.305 6.305 0 0 0-.224.416H8.58c.235-.432.508-.885.82-1.36.312-.475.66-.979 1.044-1.512L8.66 18.456h1.512l1.08 1.728 1.056-1.728h1.424l-1.76 2.688c.448.581.824 1.119 1.128 1.612.304.493.544.908.72 1.244h-1.496zm14.32-.128c-.155-.31-.324-.623-.508-.94a11.368 11.368 0 0 0-.636-.972c-.075.096-.17.23-.284.4-.115.17-.23.352-.344.544-.115.192-.223.376-.324.552a6.305 6.305 0 0 0-.224.416H22.9c.235-.432.508-.885.82-1.36.312-.475.66-.979 1.044-1.512l-1.784-2.672h1.512l1.08 1.728 1.056-1.728h1.424l-1.76 2.688c.448.581.824 1.119 1.128 1.612.304.493.544.908.72 1.244h-1.496zm-8.489-.944V24h-3.704v-5.544H15.7v4.472h2.456zm2.36.12a1.8 1.8 0 0 0 .435-.044.804.804 0 0 0 .276-.12c.07-.05.118-.11.144-.18a.642.642 0 0 0 .04-.232c0-.181-.085-.332-.256-.452-.17-.12-.464-.25-.88-.388a6.635 6.635 0 0 1-.544-.22 2.005 2.005 0 0 1-.488-.312 1.492 1.492 0 0 1-.352-.456 1.428 1.428 0 0 1-.136-.652c0-.256.048-.487.144-.692.096-.205.232-.38.408-.524.176-.144.39-.255.64-.332.25-.077.534-.116.848-.116.374 0 .696.04.968.12.272.08.496.168.672.264l-.36.984a3.41 3.41 0 0 0-.516-.212 2.234 2.234 0 0 0-.684-.092c-.298 0-.513.041-.644.124-.13.083-.196.21-.196.38 0 .101.024.187.072.256a.7.7 0 0 0 .204.188c.088.056.19.107.304.152.115.045.242.092.38.14.288.107.539.212.752.316.214.104.39.225.532.364.142.139.247.301.316.488.07.187.104.413.104.68 0 .517-.181.919-.544 1.204-.362.285-.91.428-1.64.428a4.285 4.285 0 0 1-1.188-.152 3.006 3.006 0 0 1-.668-.272l.352-.992c.166.09.37.172.612.244.243.072.54.108.892.108z" fill="#FFF"/><use stroke="#D8D8D8" mask="url(#d)" stroke-width="2" fill="#F2F2F2" xlink:href="#b"/></g></svg>
