<svg width="32" height="32" viewBox="0 0 32 32" xmlns="http://www.w3.org/2000/svg" xmlns:xlink="http://www.w3.org/1999/xlink"><title>Document/PDF</title><defs><path d="M0 2.002C0 .896.886 0 1.994 0h15.392L25 7.6v22.403C25 31.106 24.11 32 22.996 32H2.004A1.998 1.998 0 0 1 0 29.998V2.002z" id="a"/><mask id="c" x="0" y="0" width="25" height="32" fill="#fff"><use xlink:href="#a"/></mask><path d="M17 0l8 8h-6.002A1.993 1.993 0 0 1 17 6.002V0z" id="b"/><mask id="d" x="0" y="0" width="8" height="8" fill="#fff"><use xlink:href="#b"/></mask></defs><g transform="translate(2)" fill="none" fill-rule="evenodd"><use stroke="#D8D8D8" mask="url(#c)" stroke-width="2" fill="#FFF" xlink:href="#a"/><path fill="#CA1329" d="M11 16h19v10H11z"/><path d="M15.117 18.392c.827 0 1.462.145 1.904.436.443.29.664.767.664 1.428 0 .667-.224 1.148-.672 1.444-.448.296-1.088.444-1.92.444h-.392V24h-1.248v-5.464c.272-.053.56-.09.864-.112.304-.021.571-.032.8-.032zm.08 1.064c-.09 0-.18.003-.268.008a10.3 10.3 0 0 0-.228.016v1.6h.392c.432 0 .758-.059.976-.176.219-.117.328-.336.328-.656a.787.787 0 0 0-.084-.384.639.639 0 0 0-.24-.244 1.08 1.08 0 0 0-.38-.128 3.138 3.138 0 0 0-.496-.036zm4.567 3.528c.06.005.127.01.204.012.078.003.17.004.276.004.624 0 1.087-.157 1.388-.472.302-.315.452-.75.452-1.304 0-.581-.144-1.021-.432-1.32-.288-.299-.744-.448-1.368-.448-.085 0-.173.001-.264.004-.09.003-.176.01-.256.02v3.504zm3.608-1.76c0 .48-.074.899-.224 1.256-.149.357-.36.653-.636.888-.274.235-.609.41-1.004.528a4.655 4.655 0 0 1-1.328.176c-.224 0-.485-.01-.784-.028a6.405 6.405 0 0 1-.88-.116v-5.4c.288-.053.588-.09.9-.108.312-.019.58-.028.804-.028.475 0 .906.053 1.292.16.387.107.72.275.996.504.278.23.491.523.64.88.15.357.224.787.224 1.288zM24.324 24v-5.544h3.712v1.048h-2.464v1.16h2.192v1.048h-2.192V24h-1.248z" fill="#FFF"/><use stroke="#D8D8D8" mask="url(#d)" stroke-width="2" fill="#F2F2F2" xlink:href="#b"/></g></svg>