<svg width="32" height="32" viewBox="0 0 32 32" xmlns="http://www.w3.org/2000/svg"><title>icon l/userpic</title><g fill="#FFF" fill-rule="evenodd"><path d="M16.775 17.97a4.733 4.733 0 0 1-.777.072 8.909 8.909 0 0 1-2.503-.358 9.954 9.954 0 0 1-3.408-1.616C5.704 17.491 2.092 20.313 0 24.018 3.592 28.85 9.412 32 16.007 32 22.59 32 28.413 28.85 32 24.017c-2.09-3.704-5.7-6.525-10.087-7.95a9.95 9.95 0 0 1-5.138 1.903zM24 8c0-4.415-3.585-8-8-8-4.418 0-8 3.584-8 8 0 4.423 3.578 8 8 8 4.419 0 8-3.578 8-8z"/></g></svg>