<svg xmlns="http://www.w3.org/2000/svg" width="400" height="250" viewBox="0 0 400 250"><g fill="none" fill-rule="evenodd"><path fill="#000" fill-opacity=".28" d="M123.132 201.88l46.753 46.086h229.518V177.66L278.005 65.408z"/><g fill-rule="nonzero"><path fill="#FC9E5D" d="M276.607 200H123.393c-.432 0-.8-.27-.864-.635l-15.852-89.625c-.08-.453.329-.861.864-.861h184.918c.535 0 .945.408.864.861l-15.852 89.625c-.064.364-.432.635-.864.635z"/><path fill="#EE8035" d="M280.348 108.879V66.174c0-1.189-1.106-2.153-2.468-2.153H178.9c-.867 0-1.67-.395-2.114-1.046l-8.205-11.93c-.447-.647-1.25-1.045-2.115-1.045H122.12c-1.362.003-2.468.967-2.468 2.156v56.723h160.696z"/><path fill="#FFF" d="M129.392 97.664h141.217v11.215H129.392z"/><path fill="#E7ECED" d="M132.638 89.252h134.725v8.411H132.638z"/><path fill="#C7CAC7" d="M135.884 80.841h128.232v8.411H135.884z"/><path fill="#414141" d="M114.783 152.336l2.563 15.421 16.915-15.42z"/><path fill="#FFB400" d="M142.163 152.336h-8.948l-16.81 15.04 1.178 6.951 1.737 10.252 36.042-32.243z"/><path fill="#414141" d="M164.882 152.336h-8.995l-36.235 31.938.293 1.707h23.219l38.17-33.645z"/><path fill="#FFB400" d="M192.137 152.336h-9.18L144 185.981h25.971l38.957-33.645z"/><path fill="#414141" d="M218.108 152.336h-9.18l-38.957 33.645h25.971l38.957-33.645z"/><path fill="#FFB400" d="M244.08 152.336h-9.181l-38.957 33.645h25.971l38.957-33.645z"/><path fill="#414141" d="M268.427 152.336h-9.18l-38.957 33.645h25.97l38.957-33.645z"/><path fill="#FFB400" d="M285.107 152.336l-38.846 33.645h33.068l4.273-24.412 1.615-9.233z"/></g></g></svg>