<svg width="240" height="160" viewBox="0 0 240 160" xmlns="http://www.w3.org/2000/svg"><title>userpic/project pic placeholder</title><g fill="none" fill-rule="evenodd"><path d="M0 160h240V0H0z"/><path fill-opacity=".28" fill="#000" d="M114.522 44.728L52 56.83l10.187 10.124-1.61 11.986 48.195 47.892-15.893 3.373 27.052 28.494h119.71V118.96L154.804 35.12 134.33 45.884l-17.14-17.031z"/><path fill="#D8D8D8" d="M60.722 53.169h2.681v36.587h-2.681z"/><g transform="translate(55.114 82.642)" fill="#EE8035"><path d="M8.565 3.103H5.598v6.203h1.483a3.702 3.702 0 0 1 3.708 3.696 3.702 3.702 0 0 1-3.708 3.695 3.702 3.702 0 0 1-3.707-3.695H.407c0 3.674 2.988 6.652 6.674 6.652 3.687 0 6.675-2.978 6.675-6.652 0-3.166-2.22-5.815-5.191-6.487V3.103z" fill-rule="nonzero"/><rect x="3.114" width="7.265" height="5.172" rx="1"/></g><path d="M142.75 57.295H52.144V55.44c0-6.92 5.645-12.53 12.609-12.53h77.997v14.385z" fill="#FD9F5D"/><path d="M53.354 50.082a12.414 12.414 0 0 0-1.21 5.358v1.856h90.606v-7.214H53.354z" fill="#EE8035"/><path fill="#D8D8D8" d="M137.254 35.583h17.692v35.166h-17.692z"/><path fill="#CBCBCB" d="M137.254 50.082h17.692v20.666h-17.692z"/><path d="M155.751 63.555h-19.3a1.603 1.603 0 0 1-1.609-1.598c0-.883.72-1.599 1.608-1.599h19.301c.888 0 1.608.716 1.608 1.599s-.72 1.598-1.608 1.598z" fill="#FFF"/><path d="M116.507 47.705h-10.92a1.439 1.439 0 0 1-1.35-1.955l6.122-15.772c.216-.554.752-.92 1.35-.92h4.798c.8 0 1.447.644 1.447 1.438v15.771c0 .795-.648 1.438-1.447 1.438z" fill="#EE8035"/><path d="M116.507 29.059h-4.798c-.41 0-.788.174-1.057.462v18.185h5.856c.799 0 1.446-.644 1.446-1.438V30.496c0-.794-.648-1.437-1.447-1.437z" fill="#FD9F5D"/><path d="M120.934 55.504c-.008-.041-.024-.08-.037-.119-.013-.044-.024-.088-.042-.13-.02-.048-.049-.092-.075-.136-.018-.032-.032-.065-.053-.095a1.38 1.38 0 0 0-.388-.372c-.032-.02-.066-.034-.1-.051-.046-.025-.091-.052-.14-.072-.046-.017-.091-.028-.138-.04-.041-.012-.08-.028-.124-.036a1.47 1.47 0 0 0-.274-.026h-17.692a1.47 1.47 0 0 0-.274.026c-.043.008-.082.023-.123.036-.046.012-.093.023-.137.04-.05.02-.095.046-.141.072-.033.017-.068.031-.1.051a1.371 1.371 0 0 0-.388.372c-.022.03-.036.064-.054.096-.026.045-.054.088-.075.135-.018.043-.029.088-.042.132-.012.039-.028.077-.036.118a1.297 1.297 0 0 0-.028.262v67.776c0 .088.01.176.028.262.008.041.024.079.036.118.014.044.024.09.043.132.02.048.048.09.074.134.019.032.033.066.054.097.103.147.235.274.389.372.032.02.067.034.1.051.046.025.09.051.14.071.045.018.092.028.139.042.04.012.08.026.122.035.09.017.182.026.274.026h17.692c.092 0 .184-.01.274-.026.043-.009.082-.023.123-.035.047-.013.093-.023.138-.041.05-.02.094-.046.14-.07.034-.019.068-.033.1-.053.155-.098.287-.225.389-.372.021-.03.036-.063.054-.095.026-.045.054-.088.074-.135.019-.043.03-.087.043-.131.012-.04.029-.078.037-.119.018-.086.027-.174.027-.262V55.766a1.394 1.394 0 0 0-.029-.262zm-12.196 8.735l-5.469 5.237V59l5.469 5.238zm-3.49-7.133h10.937l-5.468 5.237-5.47-5.237zm5.468 9.027l6.868 6.577-6.868 6.578-6.867-6.578 6.867-6.577zm-1.978 15.05l-5.469 5.236V75.945l5.469 5.237zm1.978 1.894l6.868 6.577-6.868 6.577-6.867-6.577 6.867-6.577zm-1.978 15.05l-5.469 5.236V92.89l5.469 5.237zm1.978 1.894l6.868 6.577-6.868 6.577-6.867-6.577 6.867-6.577zm-1.978 15.05l-5.469 5.237v-10.475l5.469 5.237zm1.978 1.894l5.469 5.237h-10.938l5.47-5.237zm1.979-1.895l5.468-5.237v10.475l-5.468-5.238zm0-16.944l5.468-5.237v10.475l-5.468-5.238zm0-16.944l5.468-5.237V86.42l-5.468-5.238zm0-16.943l5.468-5.237v10.474l-5.468-5.237z" fill="#EE8035"/><path d="M120.934 55.504c-.008-.041-.024-.08-.037-.119-.013-.044-.024-.088-.042-.13-.02-.048-.049-.092-.075-.136-.018-.032-.032-.065-.053-.095a1.38 1.38 0 0 0-.388-.372c-.032-.02-.066-.034-.1-.051-.046-.025-.091-.052-.14-.072-.046-.017-.091-.028-.138-.04-.041-.012-.08-.028-.124-.036a1.47 1.47 0 0 0-.274-.026h-8.91v2.68h5.533l-5.469 5.237-.064-.061v3.913l.064-.062 6.868 6.577-6.868 6.577-.064-.061v3.913l.064-.061 6.868 6.577-6.868 6.577-.064-.062v3.913l.064-.061 6.868 6.577-6.868 6.577-.064-.062v3.914l.064-.062 5.469 5.237h-5.533v2.68h8.91c.092 0 .184-.009.274-.026.043-.008.082-.023.123-.035.047-.012.093-.023.138-.04.05-.02.094-.046.14-.071.034-.018.069-.032.1-.052.155-.098.287-.225.389-.372.021-.03.036-.064.054-.096.026-.044.054-.088.074-.135.019-.042.03-.087.043-.13.012-.04.029-.078.037-.12.018-.086.027-.173.027-.261v-67.78c0-.088-.01-.176-.028-.262zm-2.77 64.804l-5.469-5.237 5.469-5.237v10.474zm0-16.944l-5.469-5.237 5.469-5.237v10.474zm0-16.945l-5.469-5.237 5.469-5.237V86.42zm0-16.943l-5.469-5.237 5.469-5.237v10.474z" fill="#FD9F5D"/><path d="M99.162 61.761h23.645c.799 0 1.446-.644 1.446-1.437v-5.915c0-.795-.648-1.438-1.446-1.438H99.162c-.8 0-1.447.644-1.447 1.438v5.915c0 .794.648 1.437 1.447 1.437z" fill="#EE8035"/><path d="M122.807 52.97h-12.155v8.791h12.155c.799 0 1.446-.643 1.446-1.437v-5.915c0-.795-.647-1.438-1.446-1.438z" fill="#FD9F5D"/><path fill="#EE8035" d="M93.024 121.882h35.387v8.79H93.024z"/><path fill="#FD9F5D" d="M110.654 121.882h17.757v8.79h-17.757z"/></g></svg>