<svg width="32" height="32" viewBox="0 0 32 32" xmlns="http://www.w3.org/2000/svg"><g fill-rule="nonzero" fill="#FFF"><path d="M10.073 7.358l10.359-2.582-.549-1.012c-.359-.658-1.234-.93-1.955-.603L8.654 7.358h1.419zM23.647 4.85c-.128 0-.256.017-.385.049l-2.433.607-7.433 1.852H25.51l-.455-1.524c-.175-.594-.765-.983-1.407-.983zM27.03 8.29H5.461c-.461 0-.873.195-1.141.502A1.295 1.295 0 0 0 4 9.623v14.845c0 .735.654 1.332 1.459 1.332h21.567c.806 0 1.46-.597 1.46-1.332V20.75h-8.658c-1.369 0-2.48-1.015-2.48-2.265V15.523c0-.613.268-1.17.703-1.578a2.55 2.55 0 0 1 1.479-.669c.096-.01.195-.016.295-.016H28.486V9.623c.002-.735-.651-1.332-1.457-1.332z"/><path d="M29.51 14.534a1.492 1.492 0 0 0-.51-.277 1.617 1.617 0 0 0-.474-.072h-8.698c-.806 0-1.46.597-1.46 1.332v2.966c0 .736.654 1.332 1.46 1.332h8.698c.167 0 .324-.026.473-.071.193-.06.365-.155.51-.278a1.28 1.28 0 0 0 .476-.983v-2.966c0-.389-.183-.74-.475-.983zm-6.636 2.731c0 .368-.327.667-.73.667h-.484c-.403 0-.73-.299-.73-.667v-.442c0-.213.109-.402.28-.522a.782.782 0 0 1 .45-.144h.485c.402 0 .73.298.73.666v.442z"/></g></svg>
