<svg width="32" height="32" viewBox="0 0 32 32" xmlns="http://www.w3.org/2000/svg"><g fill="#FFF" fill-rule="evenodd"><path d="M16.678 19.724c-.237.04-.466.062-.68.062-.763 0-1.497-.11-2.19-.312a8.71 8.71 0 0 1-2.982-1.414C6.99 19.305 3.83 21.774 2 25.015 5.143 29.245 10.235 32 16.006 32c5.76 0 10.855-2.755 13.994-6.985-1.829-3.24-4.988-5.71-8.826-6.957a8.706 8.706 0 0 1-4.496 1.666zM22.93 7A7.008 7.008 0 0 0 18 1.29v1.7a2 2 0 1 1-4 0v-1.7A7.008 7.008 0 0 0 9.07 7h13.86zm.07 4c0 3.87-3.133 7-7 7-3.87 0-7-3.13-7-7h14zM8 9c0 .556.448 1 1 1h14c.555 0 1-.448 1-1 0-.556-.448-1-1-1H9c-.555 0-1 .448-1 1z"/><path d="M15 1.01v1.98a1 1 0 1 0 2 0V1.01a1 1 0 1 0-2 0z"/></g></svg>
