<svg width="32" height="32" viewBox="0 0 32 32" xmlns="http://www.w3.org/2000/svg"><title>icon l/delivery</title><path d="M9.773 21.042c-1.63 0-2.947 1.335-2.947 2.981C6.826 25.665 8.143 27 9.773 27c1.63 0 2.947-1.335 2.947-2.977 0-1.646-1.317-2.981-2.947-2.981zm0 4.47c-.815 0-1.473-.67-1.473-1.489a1.48 1.48 0 0 1 1.473-1.488 1.48 1.48 0 0 1 1.474 1.488c0 .819-.659 1.489-1.474 1.489zM32 22.018c0 .793-.636 1.436-1.421 1.436h-1.521c-.275-1.905-1.9-3.37-3.862-3.37-1.956 0-3.582 1.465-3.856 3.37h-7.71c-.274-1.905-1.9-3.37-3.856-3.37-1.957 0-3.582 1.465-3.857 3.37h-.904a1.429 1.429 0 0 1-1.422-1.436v-3.179H32v3.179zm-6.8-.976c-1.63 0-2.952 1.335-2.952 2.981C22.248 25.665 23.57 27 25.2 27c1.625 0 2.947-1.335 2.947-2.977 0-1.646-1.322-2.981-2.947-2.981zm0 4.47c-.815 0-1.473-.67-1.473-1.489a1.48 1.48 0 0 1 1.473-1.488c.81 0 1.474.665 1.474 1.488 0 .819-.664 1.489-1.474 1.489zm6.24-9.874l-5.586-5.58a1.89 1.89 0 0 0-1.331-.555h-2.82V8.436c0-.795-.634-1.436-1.42-1.436H5.011A1.43 1.43 0 0 0 3.59 8.436v.225l-3.457.671 8.91 1.345L0 11.715l9.007 1.482L0 14.101l3.59 1.124v2.82H32v-1.047c0-.513-.204-1-.56-1.36zm-2.435.187h-5.406a.224.224 0 0 1-.223-.225v-4.216c0-.125.1-.225.223-.225h1.028c.057 0 .113.024.156.062l4.373 4.216c.147.14.048.388-.151.388z" fill-rule="nonzero" fill="#FFF"/></svg>