<svg width="32" height="32" viewBox="0 0 32 32" xmlns="http://www.w3.org/2000/svg"><path d="M3 9.502V29h5.778V3L3 9.502zm20.222 5.201V6.901l-13-3.51V29H29V16.005l-5.778-1.302zM20.29 24.962l-7.179-.432v-.723l.044-.721 7.178.43v.724l-.043.722zm-.126-10.421l-7.053-1.694v-.743l.168-.704 7.054 1.694v.743l-.169.704zm.04 3.475l-7.093-1.277v-.734l.127-.711 7.095 1.276v.735l-.128.71zm-7.093 1.89l.086-.717 7.136.855v.729l-.086.716-7.136-.855v-.728zm7.222-10.29v.753l-.208.692-7.014-2.104v-.755l.207-.692 7.015 2.106z" fill="#FFF" fill-rule="evenodd"/></svg>
