<svg width="32" height="32" viewBox="0 0 32 32" xmlns="http://www.w3.org/2000/svg"><title>icon l/team</title><g fill-rule="nonzero" fill="#FFF"><path d="M14.2 12.944c-.265.154-2.375 1.358-3.713 1.358-1.429 0-2.721-.53-3.739-1.373-2.934.943-5.355 2.863-6.748 5.396 2.327 3.216 6.08 5.324 10.342 5.373 1.436-1.85 3.382-3.313 5.643-4.25a7.413 7.413 0 0 1-1.935-5.009c0-.512.052-1.012.15-1.495zM15.929 6.44a5.44 5.44 0 1 0-10.877.002 5.44 5.44 0 0 0 10.877-.003z"/><g><path d="M21.487 22.302c-1.429 0-2.721-.53-3.739-1.373-2.934.943-5.355 2.863-6.748 5.396 2.355 3.254 6.17 5.374 10.493 5.374 4.316 0 8.133-2.12 10.485-5.374-1.392-2.533-3.813-4.453-6.75-5.397 0 0-2.312 1.374-3.74 1.374zM26.929 14.44a5.44 5.44 0 1 0-10.877.002 5.44 5.44 0 0 0 10.877-.003z"/></g></g></svg>