<svg width="32" height="32" viewBox="0 0 32 32" xmlns="http://www.w3.org/2000/svg"><path d="M17.422 29.001H14.69c-.41 0-.554 0-1.955-3.542l-1.083-.449c-2.948 1.365-3.297 1.365-3.414 1.365h-.226l-.192-.168-1.937-1.935c-.295-.3-.397-.404 1.119-3.9l-.441-1.066C3 18.004 3 17.853 3 17.424V14.69c0-.429 0-.564 3.548-1.964l.441-1.068c-1.604-3.443-1.493-3.55-1.177-3.854L7.896 5.72l.258-.009c.315 0 1.482.435 3.472 1.292l1.079-.447C14.004 3 14.163 3 14.573 3h2.733c.41 0 .554 0 1.955 3.544l1.084.446c2.944-1.363 3.297-1.363 3.415-1.363h.224l.193.165 1.937 1.932c.295.303.395.407-1.12 3.905l.442 1.071C29 13.996 29 14.147 29 14.577v2.731c0 .418 0 .566-3.552 1.966l-.439 1.07c1.596 3.427 1.49 3.535 1.192 3.842l-2.1 2.098-.26.007c-.313 0-1.477-.435-3.465-1.293l-1.085.447c-1.302 3.556-1.45 3.556-1.869 3.556zM16 20.551a4.555 4.555 0 0 1-4.547-4.55A4.553 4.553 0 0 1 16 11.452a4.55 4.55 0 0 1 0 9.099z" fill="#FFF" fill-rule="evenodd"/></svg>
