<svg width="32" height="32" viewBox="0 0 32 32" xmlns="http://www.w3.org/2000/svg"><title>icon l/customers</title><g fill="#FFF" fill-rule="evenodd"><path d="M16.678 19.724c-.237.04-.466.062-.68.062-.763 0-1.497-.11-2.19-.312a8.71 8.71 0 0 1-2.982-1.414C6.99 19.305 3.83 21.774 2 25.015 5.143 29.245 10.235 32 16.006 32c5.76 0 10.855-2.755 13.994-6.985-1.829-3.24-4.988-5.71-8.826-6.957a8.706 8.706 0 0 1-4.496 1.666zM9.25 9.142a5.5 5.5 0 0 1 8.629-5.983 4 4 0 0 1 4.738 5.552A6.998 6.998 0 0 1 16 18c-3.87 0-7-3.13-7-7 0-.643.087-1.266.25-1.858zM17 10v1.99c0 .567.452 1.01 1.01 1.01h1.98c.567 0 1.01-.452 1.01-1.01v-1.98V10h1V9H10v1h1v1.99c0 .567.452 1.01 1.01 1.01h1.98c.567 0 1.01-.452 1.01-1.01v-1.98V10h2z"/></g></svg>