<svg xmlns="http://www.w3.org/2000/svg" width="32" height="32" viewBox="0 0 32 32"><path fill="#FFF" fill-rule="evenodd" d="M27.452 7.938a1.843 1.843 0 0 0-1.298-.51h-1.846V6.144c0-.59-.226-1.094-.678-1.513A2.311 2.311 0 0 0 22 4h-.923a2.31 2.31 0 0 0-1.63.63c-.452.42-.678.924-.678 1.513v1.286h-5.538V6.143c0-.59-.226-1.094-.678-1.513a2.31 2.31 0 0 0-1.63-.63H10c-.634 0-1.178.21-1.63.63-.452.42-.678.924-.678 1.513v1.286H5.846c-.5 0-.932.17-1.298.509-.365.339-.548.74-.548 1.205v17.143c0 .464.183.866.548 1.205.365.34.798.509 1.298.509h20.308c.5 0 .933-.17 1.298-.509.365-.34.548-.741.548-1.205V9.143c0-.464-.183-.866-.548-1.205zM10 26.286H5.846v-3.858H10v3.858zm0-4.715H5.846v-4.285H10v4.285zm0-5.143H5.846v-3.857H10v3.857zm-.324-6.127a.398.398 0 0 1-.137-.3V6.142c0-.116.045-.217.137-.301A.46.46 0 0 1 10 5.715h.923a.46.46 0 0 1 .325.127.398.398 0 0 1 .137.301V10a.398.398 0 0 1-.137.301.46.46 0 0 1-.325.128H10a.46.46 0 0 1-.324-.128zm5.863 15.985h-4.616v-3.858h4.616v3.858zm0-4.715h-4.616v-4.285h4.616v4.285zm0-5.143h-4.616v-3.857h4.616v3.857zm5.538 9.858h-4.615v-3.858h4.615v3.858zm0-4.715h-4.615v-4.285h4.615v4.285zm0-5.143h-4.615v-3.857h4.615v3.857zm-.324-6.127a.398.398 0 0 1-.137-.3V6.142c0-.116.045-.217.137-.301a.46.46 0 0 1 .324-.127H22c.125 0 .233.042.325.127a.398.398 0 0 1 .137.301V10a.398.398 0 0 1-.137.301.46.46 0 0 1-.325.128h-.923a.46.46 0 0 1-.324-.128zm5.4 15.985H22v-3.858h4.154v3.858zm0-4.715H22v-4.285h4.154v4.285zm0-5.143H22v-3.857h4.154v3.857z"/></svg>